<?xml version="1.0" ?><svg height="92.077972mm" viewBox="0 0 100.17429 92.077972" width="100.17429mm" xmlns="http://www.w3.org/2000/svg">
    <path d="m 537.25931,246.27093 c 0,0 -41.27426,-57.86674 -52.13247,-67.90363 -10.85821,-10.0369 -17.988,-31.96503 -3.85925,-46.71134 14.12875,-14.7463 34.43883,-13.36292 40.94722,-9.74257 6.50838,3.62035 19.62326,25.54849 19.62326,25.54849 0,0 11.57774,-17.63081 25.01967,-20.80965 13.44193,-3.17885 33.49036,-3.14941 40.97991,14.59913 7.48956,17.74854 5.36369,32.08276 -8.20906,47.56491 -13.57276,15.48215 -62.36928,57.45466 -62.36928,57.45466 z" fill="#021018" transform="translate(-159.60681,4.9772464) matrix(0.68388338,-0.05213569,0.05213569,0.68388338,-169.71404,-56.691581)"/>
    <path d="m 523.37403,235.76741 c -6.4143,-8.36902 -19.83195,-25.29683 -29.817,-37.61737 -21.61476,-26.6706 -24.84844,-33.5133 -23.33682,-49.38294 1.22838,-12.8948 6.19793,-21.06304 16.72434,-27.48912 7.19149,-4.39012 18.63701,-7.08578 26.12753,-6.15364 11.45965,1.42612 23.62757,10.01154 27.34376,20.73757 l 1.99468,5.75725 4.6711,-5.46697 c 17.0815,-19.99188 47.79673,-21.63181 61.80208,-3.37252 11.74697,15.31482 8.80072,40.29204 -7.28544,61.76437 -5.70899,7.62048 -17.97608,19.46073 -42.15267,40.6858 -14.67333,12.88209 -19.69175,16.33147 -23.1453,15.90868 -0.69518,-0.0851 -6.51207,-7.0021 -12.92626,-15.37111 z m 39.89954,-16.82706 c 25.70076,-23.75299 34.12641,-33.69648 39.42328,-46.52482 2.97224,-7.19862 3.55084,-10.32618 3.25737,-17.60951 -0.64132,-15.91558 -7.59526,-23.90069 -22.33051,-25.64165 -13.16176,-1.55478 -24.98135,3.42413 -37.77854,20.40978 -5.64362,7.49076 -6.87057,6.57205 -8.59936,0.64881 -1.37624,-4.71534 -7.32548,-16.66907 -12.83407,-21.06617 -11.61372,-9.27038 -30.29184,-6.04898 -40.22632,6.93785 -4.1314,5.40067 -5.17825,20.58757 -1.98686,28.82305 1.30327,3.36308 12.21192,18.30286 24.24139,33.19936 12.0296,14.89641 24.01936,30.84549 26.64387,35.44231 2.62451,4.59681 5.31727,7.96948 5.98396,7.49487 0.6667,-0.4747 11.55935,-10.42591 24.20579,-22.11388 z" fill="#FFF713" transform="translate(-159.60681,4.9772464) matrix(0.68388338,-0.05213569,0.05213569,0.68388338,-169.71404,-56.691581)"/>
</svg>